<svg t="1702646979980" class="icon" viewBox="0 0 1024 1024" version="1.1" xmlns="http://www.w3.org/2000/svg" p-id="7097" width="200" height="200"><path d="M477.862684 665.594453a17.066524 17.066524 0 0 1 17.066525-17.066524h34.133049a17.066524 17.066524 0 1 1 0 34.133049h-34.133049a17.066524 17.066524 0 0 1-17.066525-17.066525zM64.460263 901.317289c-1.894384 1.979717-46.591612 49.390522-63.555737 100.214632a17.066524 17.066524 0 0 0 32.392263 10.786043c14.506546-43.502571 55.500337-87.073408 55.909934-87.517137a17.066524 17.066524 0 0 0-24.74646-23.483538zM204.798293 85.332622c0-28.228031 22.971542-51.199573 51.199574-51.199573s51.199573 22.971542 51.199573 51.199573c0 14.608945-6.212215 27.716036-16.059599 37.051425l114.499312 76.338564 78.488946-104.668995A51.131307 51.131307 0 0 1 460.79616 51.199573c0-28.228031 22.971542-51.199573 51.199573-51.199573s51.199573 22.971542 51.199574 51.199573a51.131307 51.131307 0 0 1-23.329939 42.854043l78.488946 104.668995 114.499312-76.338564A50.909442 50.909442 0 0 1 716.794027 85.332622c0-28.228031 22.971542-51.199573 51.199573-51.199573s51.199573 22.971542 51.199573 51.199573a51.080108 51.080108 0 0 1-34.133049 48.042267V358.397013a17.066524 17.066524 0 1 1-34.133048 0V151.345939l-127.060275 84.718227A17.066524 17.066524 0 0 1 600.74166 232.104732L511.995733 113.782518 423.249806 232.104732c-5.461288 7.236206-15.61587 8.976992-23.12514 3.959434L273.064391 151.345939V341.330489h426.663111a17.066524 17.066524 0 1 1 0 34.133049H255.997867a17.066524 17.066524 0 0 1-17.066525-17.066525V133.374889A51.080108 51.080108 0 0 1 204.798293 85.332622z m546.128783 0a17.083591 17.083591 0 0 0 34.133048 0 17.083591 17.083591 0 0 0-34.133048 0zM494.929209 51.199573a17.083591 17.083591 0 0 0 34.133049 0 17.083591 17.083591 0 0 0-34.133049 0zM238.931342 85.332622a17.083591 17.083591 0 0 0 34.133049 0 17.083591 17.083591 0 0 0-34.133049 0z m-34.133049 443.729636v-34.133049c0-23.142207 13.823885-41.778852 34.133049-48.503063V426.663111a17.066524 17.066524 0 1 1 34.133049 0v34.133049a17.066524 17.066524 0 0 1-17.066524 17.066524c-10.530046 0-17.066524 6.536479-17.066525 17.066525v34.133049c0 9.420721 7.662869 17.066524 17.066525 17.066524 6.399947 0 12.253765 3.566904 15.17214 9.250057l34.576778 67.190906c22.305947 19.046241 67.993033 33.14319 96.084533 39.935667C415.877068 621.340955 447.928001 580.261831 511.995733 580.261831s96.135732 41.079124 110.164416 82.243581c28.484029-6.877809 75.058575-21.299023 97.006125-40.75486l33.603986-66.269314A17.066524 17.066524 0 0 1 767.9936 546.128782c9.386588 0 17.066524-7.645803 17.066524-17.066524v-34.133049c0-11.315106-5.734352-17.066524-17.066524-17.066525a17.066524 17.066524 0 0 1-17.066524-17.066524v-34.133049a17.066524 17.066524 0 1 1 34.133048 0v19.558237c20.735827 6.399947 34.133049 24.661128 34.133049 48.707861v34.133049a51.284906 51.284906 0 0 1-40.106332 49.98785l-29.064291 57.275256C728.706461 843.786035 608.984792 887.459271 511.995733 887.459271c-130.76371 0-219.065908-92.910159-237.17349-248.81286-0.563195-1.17759-0.802127-2.423446-1.075191-3.669302l-28.77416-55.909935A51.267839 51.267839 0 0 1 204.798293 529.062258z m187.731769 187.731769c0-6.331681 0.494929-13.465488 1.501854-21.008892-19.524104-4.659161-51.916367-13.670286-79.888401-27.681903C337.848918 784.769994 409.767252 853.326222 511.995733 853.326222c110.420413 0 177.150524-62.600012 199.081008-185.837384-28.228031 14.38708-61.302956 23.56887-81.117191 28.296297 1.006925 7.543404 1.501854 14.677211 1.501854 21.008892a17.066524 17.066524 0 1 1-34.133048 0c-0.017067-4.147165-1.433588-102.399147-85.332623-102.399147s-85.332622 98.251981-85.332622 102.43328c-0.034133 9.403655-7.679936 17.015325-17.066524 17.015325h-0.034133A17.032391 17.032391 0 0 1 392.530062 716.794027z m-17.066524-273.064391a17.066524 17.066524 0 1 0 0 34.133048h17.066524a17.066524 17.066524 0 1 0 34.133049 0h17.066525a17.066524 17.066524 0 1 0 0-34.133048h-68.266098z m204.798293 0a17.066524 17.066524 0 1 0 0 34.133048h17.066525a17.066524 17.066524 0 1 0 34.133048 0h17.066525a17.066524 17.066524 0 1 0 0-34.133048h-68.266098zM1023.138141 1001.531921c-16.964125-50.82411-61.661353-98.234915-63.555738-100.214632a17.066524 17.066524 0 1 0-24.74646 23.483538c0.409597 0.44373 41.335122 43.843901 55.909934 87.517137a17.083591 17.083591 0 0 0 32.392264-10.786043z m-110.966542-146.396647C877.441221 837.761552 807.861001 819.193173 716.794027 819.193173a17.066524 17.066524 0 1 0 0 34.133049c66.04745 0 119.977667 10.461779 154.793376 22.118216-107.860434 83.899034-230.568745 107.877501-265.094324 113.202257-37.768219-48.639595-86.919809-65.450121-89.104324-66.166916a16.895859 16.895859 0 0 0-10.786043 0c-2.184515 0.716794-51.336106 17.527321-89.104324 66.166916-34.542645-5.324756-157.23389-29.303222-265.094325-113.202257C187.219773 863.788002 241.14999 853.326222 307.19744 853.326222a17.066524 17.066524 0 1 0 0-34.133049c-91.049908 0-160.630128 18.568379-195.360505 35.942101a17.032391 17.032391 0 0 0-3.618103 28.108566c139.040975 121.650186 308.170232 139.9455 315.304039 140.662294 6.109816 0.511996 12.202565-2.167449 15.735335-7.253273 25.24139-36.351697 59.664569-53.947284 72.77166-59.647503 13.124157 5.64902 47.274273 23.039808 72.703395 59.647503a17.066524 17.066524 0 0 0 15.735335 7.253273c7.133807-0.716794 176.263064-19.012108 315.304039-140.662294a17.032391 17.032391 0 0 0-3.618103-28.108566zM512.507729 989.858418h-0.170665a16.981192 16.981192 0 0 0-16.981192 17.066524 17.117724 17.117724 0 0 0 34.218382 0 17.066524 17.066524 0 0 0-17.066525-17.066524z" fill="#8a8a8a" p-id="7098"></path></svg>
